<?xml version="1.0" standalone="no"?>
<!DOCTYPE svg PUBLIC "-//W3C//DTD SVG 20010904//EN"
 "http://www.w3.org/TR/2001/REC-SVG-20010904/DTD/svg10.dtd">
<svg version="1.0" xmlns="http://www.w3.org/2000/svg"
 width="260.000000pt" height="260.000000pt" viewBox="0 0 260.000000 260.000000"
 preserveAspectRatio="xMidYMid meet">
<metadata>
Created by potrace 1.11, written by Peter Selinger 2001-2013
</metadata>
<g transform="translate(0.000000,260.000000) scale(0.100000,-0.100000)"
fill="#000000" stroke="none">
<path d="M10 1300 l0 -1290 1290 0 1290 0 0 1290 0 1290 -1290 0 -1290 0 0
-1290z m1538 1196 c484 -104 847 -467 959 -958 12 -53 16 -120 16 -243 0 -123
-4 -190 -16 -243 -112 -491 -468 -847 -959 -959 -102 -23 -384 -23 -486 0
-491 112 -847 468 -959 959 -23 102 -23 384 0 486 71 309 233 561 479 743 144
107 340 192 503 218 39 6 81 13 95 15 52 9 298 -3 368 -18z"/>
<path d="M1130 2365 c-112 -19 -209 -50 -307 -100 -598 -301 -786 -1049 -402
-1595 385 -548 1175 -616 1650 -141 424 424 424 1108 0 1532 -246 246 -604
361 -941 304z m108 -588 c30 -32 47 -86 66 -212 27 -179 55 -310 98 -469 38
-137 40 -151 27 -175 -36 -64 -114 -60 -148 8 -20 39 -71 247 -92 374 -7 42
-16 77 -19 77 -4 0 -35 -82 -70 -182 -35 -101 -74 -205 -87 -231 -38 -76 -110
-94 -153 -39 -22 28 -53 122 -103 317 l-33 128 -36 -139 c-20 -76 -42 -171
-48 -210 -6 -39 -20 -84 -30 -101 -32 -53 -101 -52 -136 3 -16 23 -16 35 -6
108 7 44 32 151 56 236 24 85 54 206 66 269 25 132 43 186 78 224 34 36 89 37
120 4 28 -29 33 -49 77 -262 19 -93 43 -197 53 -230 l19 -60 60 185 c34 102
66 212 73 245 14 70 42 130 67 144 31 18 78 13 101 -12z m433 4 c24 -19 24
-22 21 -178 l-3 -158 29 30 c16 17 89 94 162 173 112 121 136 142 162 142 41
0 63 -14 78 -50 12 -29 10 -34 -26 -87 -22 -31 -101 -121 -177 -199 l-138
-143 76 -72 c105 -100 192 -169 242 -190 67 -28 84 -86 38 -129 -62 -59 -189
5 -377 188 l-66 65 -4 -136 c-3 -116 -6 -138 -22 -156 -23 -25 -72 -28 -103
-6 -42 30 -45 62 -34 422 6 186 11 364 11 396 0 48 4 62 25 82 29 30 74 32
106 6z"/>
</g>
</svg>
